# Blender v2.79 (sub 0) OBJ File: ''
# www.blender.org
mtllib other.mtl
o Solid1
v -50.000000 0.000007 -40.000000
v -50.000000 0.000000 0.000000
v -50.000000 30.000006 -39.999996
v -50.000000 30.000000 0.000005
v 0.000000 0.000007 -40.000000
v 0.000000 30.000006 -39.999996
v 0.000000 5.000005 -32.500000
v 0.000000 5.000000 -2.499999
v 0.000000 0.000000 0.000000
v 0.000000 17.000000 -2.499997
v 0.000000 30.000000 0.000005
v 0.000000 17.000006 -32.499996
v -30.000000 17.000000 -2.499997
v -30.000000 5.000000 -2.499999
v -30.000000 5.000005 -32.500000
v -30.000000 17.000006 -32.499996
vt 0.000000 0.000000
vt 10.160000 0.000000
vt 0.000000 7.620000
vt 10.160000 7.620000
vt 0.000000 0.000000
vt 12.700000 0.000000
vt 0.000000 7.620000
vt 12.700000 7.620000
vt 8.255000 1.270000
vt 0.635000 1.270000
vt 0.000000 0.000000
vt 0.635000 4.318000
vt 0.000000 7.620000
vt 8.255000 4.318000
vt 10.160000 7.620000
vt 10.160000 0.000000
vt 0.000000 0.000000
vt 12.700000 0.000000
vt 0.000000 7.620000
vt 12.700000 7.620000
vt -5.080000 -6.350000
vt 5.080000 -6.350000
vt -5.080000 6.350000
vt 5.080000 6.350000
vt 5.080000 6.350000
vt -5.080000 6.350000
vt 5.080000 -6.350000
vt -5.080000 -6.350000
vt -3.048000 0.000000
vt -0.000000 0.000000
vt -3.048000 7.620000
vt -0.000000 7.620000
vt -7.620000 0.000000
vt -0.000000 0.000000
vt -7.620000 7.620000
vt -0.000000 7.620000
vt -3.048000 0.000000
vt -0.000000 0.000000
vt -3.048000 7.620000
vt -0.000000 7.620000
vt -7.620000 0.000000
vt -0.000000 0.000000
vt -7.620000 7.620000
vt -0.000000 7.620000
vt 3.810000 1.524000
vt -3.810000 1.524000
vt 3.810000 -1.524000
vt -3.810000 -1.524000
vn -1.0000 0.0000 0.0000
vn 0.0000 0.0000 -1.0000
vn 1.0000 0.0000 0.0000
vn 0.0000 -0.0000 1.0000
vn 0.0000 -1.0000 -0.0000
vn 0.0000 1.0000 0.0000
usemtl 191,191,191
s 1
f 1/1/1 2/2/1 3/3/1
f 3/3/1 2/2/1 4/4/1
f 5/5/2 1/6/2 6/7/2
f 6/7/2 1/6/2 3/8/2
f 7/9/3 8/10/3 9/11/3
f 9/11/3 8/10/3 10/12/3
f 9/11/3 10/12/3 11/13/3
f 11/13/3 10/12/3 12/14/3
f 11/13/3 12/14/3 6/15/3
f 6/15/3 12/14/3 5/16/3
f 5/16/3 12/14/3 7/9/3
f 5/16/3 7/9/3 9/11/3
f 2/17/4 9/18/4 4/19/4
f 4/19/4 9/18/4 11/20/4
f 2/21/5 1/22/5 9/23/5
f 9/23/5 1/22/5 5/24/5
f 11/25/6 6/26/6 4/27/6
f 4/27/6 6/26/6 3/28/6
f 10/29/2 8/30/2 13/31/2
f 13/31/2 8/30/2 14/32/2
f 8/33/6 7/34/6 14/35/6
f 14/35/6 7/34/6 15/36/6
f 7/37/4 12/38/4 15/39/4
f 15/39/4 12/38/4 16/40/4
f 12/41/5 10/42/5 16/43/5
f 16/43/5 10/42/5 13/44/5
f 16/45/3 13/46/3 15/47/3
f 15/47/3 13/46/3 14/48/3
