# WaveFront *.obj file (generated by Autodesk ATF)

mtllib TestPart.mtl

g Solid1

v -5.000000 0.000000 -4.000000
v -5.000000 0.000000 0.000000
v -5.000000 3.000000 -4.000000
v -5.000000 3.000000 0.000000
v -3.000000 0.500000 -3.250000
v -3.000000 0.500000 -0.250000
v -3.000000 1.700000 -3.250000
v -3.000000 1.700000 -0.250000
v 0.000000 0.000000 -4.000000
v 0.000000 0.000000 0.000000
v 0.000000 0.500000 -3.250000
v 0.000000 0.500000 -0.250000
v 0.000000 1.700000 -3.250000
v 0.000000 1.700000 -0.250000
v 0.000000 3.000000 -4.000000
v 0.000000 3.000000 0.000000
vt 0.000000 0.000000 0.000000
vt 10.160000 0.000000 0.000000
vt 10.160000 7.620000 0.000000
vt 0.000000 7.620000 0.000000
vt 0.000000 0.000000 0.000000
vt 12.700000 0.000000 0.000000
vt 12.700000 7.620000 0.000000
vt 0.000000 7.620000 0.000000
vt 0.635000 1.270000 0.000000
vt 0.635000 4.318000 0.000000
vt 8.255000 4.318000 0.000000
vt 8.255000 1.270000 0.000000
vt 0.000000 0.000000 0.000000
vt 10.160000 0.000000 0.000000
vt 10.160000 7.620000 0.000000
vt 0.000000 7.620000 0.000000
vt 0.000000 0.000000 0.000000
vt 12.700000 0.000000 0.000000
vt 12.700000 7.620000 0.000000
vt 0.000000 7.620000 0.000000
vt -5.080000 6.350000 0.000000
vt -5.080000 -6.350000 0.000000
vt 5.080000 -6.350000 0.000000
vt 5.080000 6.350000 0.000000
vt 5.080000 -6.350000 0.000000
vt 5.080000 6.350000 0.000000
vt -5.080000 6.350000 0.000000
vt -5.080000 -6.350000 0.000000
vt -3.048000 0.000000 0.000000
vt -0.000000 0.000000 0.000000
vt -0.000000 7.620000 0.000000
vt -3.048000 7.620000 0.000000
vt -7.620000 0.000000 0.000000
vt -0.000000 0.000000 0.000000
vt -0.000000 7.620000 0.000000
vt -7.620000 7.620000 0.000000
vt -3.048000 0.000000 0.000000
vt -0.000000 0.000000 0.000000
vt -0.000000 7.620000 0.000000
vt -3.048000 7.620000 0.000000
vt -7.620000 0.000000 0.000000
vt -0.000000 0.000000 0.000000
vt -0.000000 7.620000 0.000000
vt -7.620000 7.620000 0.000000
vt 3.810000 1.524000 0.000000
vt -3.810000 1.524000 0.000000
vt -3.810000 -1.524000 0.000000
vt 3.810000 -1.524000 0.000000
vn -2.540000 0.000000 0.000000
vn -2.540000 0.000000 0.000000
vn -2.540000 0.000000 0.000000
vn -2.540000 0.000000 0.000000
vn 0.000000 0.000000 -2.540000
vn 0.000000 0.000000 -2.540000
vn 0.000000 0.000000 -2.540000
vn 0.000000 0.000000 -2.540000
vn 2.540000 0.000000 0.000000
vn 2.540000 0.000000 0.000000
vn 2.540000 0.000000 0.000000
vn 2.540000 0.000000 0.000000
vn 2.540000 0.000000 0.000000
vn 2.540000 0.000000 0.000000
vn 2.540000 0.000000 0.000000
vn 2.540000 0.000000 0.000000
vn 0.000000 0.000000 2.540000
vn 0.000000 0.000000 2.540000
vn 0.000000 0.000000 2.540000
vn 0.000000 0.000000 2.540000
vn 0.000000 -2.540000 0.000000
vn 0.000000 -2.540000 0.000000
vn 0.000000 -2.540000 0.000000
vn 0.000000 -2.540000 0.000000
vn 0.000000 2.540000 0.000000
vn 0.000000 2.540000 0.000000
vn 0.000000 2.540000 0.000000
vn 0.000000 2.540000 0.000000
vn 0.000000 0.000000 -2.540000
vn 0.000000 0.000000 -2.540000
vn 0.000000 0.000000 -2.540000
vn 0.000000 0.000000 -2.540000
vn 0.000000 2.540000 0.000000
vn 0.000000 2.540000 0.000000
vn 0.000000 2.540000 0.000000
vn 0.000000 2.540000 0.000000
vn 0.000000 0.000000 2.540000
vn 0.000000 0.000000 2.540000
vn 0.000000 0.000000 2.540000
vn 0.000000 0.000000 2.540000
vn 0.000000 -2.540000 0.000000
vn 0.000000 -2.540000 0.000000
vn 0.000000 -2.540000 0.000000
vn 0.000000 -2.540000 0.000000
vn 2.540000 0.000000 0.000000
vn 2.540000 0.000000 0.000000
vn 2.540000 0.000000 0.000000
vn 2.540000 0.000000 0.000000
usemtl 191,191,191
f 1/1/1 2/2/2 3/4/4
f 3/4/4 2/2/2 4/3/3
f 9/5/5 1/6/6 15/8/8
f 15/8/8 1/6/6 3/7/7
f 11/12/12 12/9/9 10/13/13
f 10/13/13 12/9/9 14/10/10
f 10/13/13 14/10/10 16/16/16
f 16/16/16 14/10/10 13/11/11
f 16/16/16 13/11/11 15/15/15
f 15/15/15 13/11/11 9/14/14
f 9/14/14 13/11/11 11/12/12
f 9/14/14 11/12/12 10/13/13
f 2/17/17 10/18/18 4/20/20
f 4/20/20 10/18/18 16/19/19
f 2/22/22 1/23/23 10/21/21
f 10/21/21 1/23/23 9/24/24
f 16/26/26 15/27/27 4/25/25
f 4/25/25 15/27/27 3/28/28
f 14/29/29 12/30/30 8/32/32
f 8/32/32 12/30/30 6/31/31
f 12/33/33 11/34/34 6/36/36
f 6/36/36 11/34/34 5/35/35
f 11/37/37 13/38/38 5/40/40
f 5/40/40 13/38/38 7/39/39
f 13/41/41 14/42/42 7/44/44
f 7/44/44 14/42/42 8/43/43
f 7/45/45 8/46/46 5/48/48
f 5/48/48 8/46/46 6/47/47

# 16 vertices
# 48 texture params
# 48 normals
# 28 facets

# 1 groups
