<?xml version="1.0" encoding="UTF-8" standalone="no"?>
<!-- Generator: Adobe Illustrator 19.0.0, SVG Export Plug-In . SVG Version: 6.00 Build 0)  -->

<svg
   xmlns:dc="http://purl.org/dc/elements/1.1/"
   xmlns:cc="http://creativecommons.org/ns#"
   xmlns:rdf="http://www.w3.org/1999/02/22-rdf-syntax-ns#"
   xmlns:svg="http://www.w3.org/2000/svg"
   xmlns="http://www.w3.org/2000/svg"
   xmlns:sodipodi="http://sodipodi.sourceforge.net/DTD/sodipodi-0.dtd"
   xmlns:inkscape="http://www.inkscape.org/namespaces/inkscape"
   version="1.1"
   id="Capa_1"
   x="0px"
   y="0px"
   viewBox="0 0 512.001 512.001"
   style="enable-background:new 0 0 512.001 512.001;"
   xml:space="preserve"
   sodipodi:docname="spaceship.svg"
   inkscape:version="0.92.3 (2405546, 2018-03-11)"><metadata
   id="metadata91"><rdf:RDF><cc:Work
       rdf:about=""><dc:format>image/svg+xml</dc:format><dc:type
         rdf:resource="http://purl.org/dc/dcmitype/StillImage" /></cc:Work></rdf:RDF></metadata><defs
   id="defs89" /><sodipodi:namedview
   pagecolor="#ffffff"
   bordercolor="#666666"
   borderopacity="1"
   objecttolerance="10"
   gridtolerance="10"
   guidetolerance="10"
   inkscape:pageopacity="0"
   inkscape:pageshadow="2"
   inkscape:window-width="1366"
   inkscape:window-height="705"
   id="namedview87"
   showgrid="false"
   inkscape:zoom="0.65186282"
   inkscape:cx="-100.15071"
   inkscape:cy="239.01709"
   inkscape:window-x="-8"
   inkscape:window-y="-8"
   inkscape:window-maximized="1"
   inkscape:current-layer="g16" />
<g
   id="g6"
   transform="matrix(1.2307421,0,0,1.2307421,-118.13961,2.2613249e-5)">
	<g
   id="g4">
		<path
   d="m 268.662,243.351 c -3.91,-3.91 -10.24,-3.91 -14.15,0 -3.9,3.9 -3.9,10.23 0,14.14 3.91,3.9 10.24,3.9 14.15,0 3.9,-3.91 3.9,-10.24 0,-14.14 z"
   id="path2"
   inkscape:connector-curvature="0" />
	</g>
</g>
<g
   id="g12"
   transform="matrix(1.2307421,0,0,1.2307421,-118.13961,2.2613249e-5)">
	<g
   id="g10">
		<path
   d="m 395.933,116.07 c -19.54,-19.539 -51.172,-19.54 -70.713,0 -19.489,19.489 -19.49,51.209 0.003,70.714 19.496,19.484 51.216,19.492 70.71,-0.002 19.538,-19.538 19.542,-51.171 0,-70.712 z m -14.142,56.569 c -11.693,11.694 -30.727,11.694 -42.426,0.002 -11.695,-11.702 -11.696,-30.736 -0.002,-42.429 11.723,-11.723 30.703,-11.725 42.428,0 11.723,11.722 11.725,30.703 0,42.427 z"
   id="path8"
   inkscape:connector-curvature="0" />
	</g>
</g>
<g
   id="g18"
   transform="matrix(1.2307421,0,0,1.2307421,-118.13961,2.2613249e-5)">
	<g
   id="g16">
		<path
   d="m 509.07,2.929 c -1.964,-1.963 -4.644,-3.027 -7.43,-2.922 -2.261,0.081 -56.096,2.245 -120.091,24.864 -51.28,18.106 -94.023,44.029 -127.042,77.049 -7.399,7.399 -14.599,15.245 -21.488,23.396 -32.648,-19.218 -58.81,-13.192 -75.349,-4.341 -38.081,20.38 -61.652,75.716 -61.652,115.296 0.003,4.044 2.44,7.691 6.176,9.238 1.237,0.513 2.537,0.762 3.825,0.762 2.603,0 5.16,-1.017 7.073,-2.929 20.083,-20.083 44.854,-18.827 52.946,-17.763 l 3.502,3.502 c -6.892,16.4 -12.444,32.708 -16.516,48.569 -1.47,5.74 -0.974,11.814 1.211,17.37 78.36025,71.00802 0,0 80.123,70.12664 31.95107,-16.14381 32.8143,-16.28137 48.562,-22.68364 l 3.502,3.502 c 1.063,8.093 2.319,32.864 -17.763,52.945 -2.859,2.86 -3.715,7.161 -2.167,10.897 1.547,3.737 5.193,6.173 9.238,6.173 39.58,0 94.915,-23.571 115.295,-61.652 8.851,-16.537 14.877,-42.699 -4.341,-75.348 8.147,-6.886 15.994,-14.086 23.396,-21.488 33.02,-33.02 58.942,-75.763 77.048,-127.039 22.62,-63.998 24.783,-117.834 24.864,-120.094 0.1,-2.775 -0.959,-5.466 -2.922,-7.43 z M 118.376,214.762 c 6.212,-30.063 24.255,-63.052 48.735,-76.154 16.359,-8.754 34.24,-7.896 53.252,2.511 -16.197,21.302 -30.278,44.252 -42.015,68.487 -0.149,-0.092 -1.949,-2.355 -5.293,-3.109 -1.375,-0.311 -27.834,-6.002 -54.679,8.265 z m 118.06502,131.89202 c -2.894,0.741 -13.29702,-7.39802 -15.78902,-9.88602 -12.937,-12.937 -17.998,-17.998 -19.586,-19.585 -2.912,-2.912 -10.053,-10.053 -25.826,-25.827 -2.494,-2.499 -3.582,-5.85 -2.843,-8.739 3.203,-12.474 7.392,-25.272 12.486,-38.193 l 81.81362,82.695 c -30.2556,19.53502 -16.02385,10.16438 -30.2556,19.53502 z M 373.394,344.891 c -13.102,24.479 -46.09,42.523 -76.152,48.734 9.585,-18.037 11.698,-40.998 8.196,-54.921 -0.813,-3.234 -2.923,-4.86 -3.041,-5.051 24.233,-11.737 47.182,-25.818 68.486,-42.015 10.407,19.014 11.264,36.897 2.511,53.253 z M 395.94,243.35 c -9.011,9.01 -18.714,17.715 -28.84,25.872 -24.342,19.6 -51.134,36.202 -79.718,49.418 l -94.02,-94.018 c 13.216,-28.586 29.818,-55.378 49.416,-79.717 8.164,-10.133 16.868,-19.837 25.875,-28.843 29.625,-29.626 67.859,-53.204 113.671,-70.176 l 83.792,83.792 c -16.97,45.811 -40.548,84.045 -70.176,113.672 z M 473.311,108.587 403.415,38.691 c 38.081,-11.828 71.21,-16.257 87.746,-17.849 -1.593,16.539 -6.023,49.668 -17.85,87.745 z"
   id="path14"
   inkscape:connector-curvature="0"
   sodipodi:nodetypes="ccccccccsccccccccccsccscccccccccccccccccccccccccccccccccccc" />
	</g>
</g>





<g
   id="g54"
   transform="matrix(1.2307421,0,0,1.2307421,-118.13961,2.2613249e-5)">
	<g
   id="g52">
		<path
   d="m 311.083,200.919 c -3.906,-3.905 -10.236,-3.905 -14.143,0 l -14.14,14.14 c -3.905,3.905 -3.905,10.237 0,14.143 3.906,3.905 10.237,3.905 14.143,0 l 14.14,-14.14 c 3.905,-3.905 3.905,-10.237 0,-14.143 z"
   id="path50"
   inkscape:connector-curvature="0" />
	</g>
</g>
<g
   id="g56">
</g>
<g
   id="g58">
</g>
<g
   id="g60">
</g>
<g
   id="g62">
</g>
<g
   id="g64">
</g>
<g
   id="g66">
</g>
<g
   id="g68">
</g>
<g
   id="g70">
</g>
<g
   id="g72">
</g>
<g
   id="g74">
</g>
<g
   id="g76">
</g>
<g
   id="g78">
</g>
<g
   id="g80">
</g>
<g
   id="g82">
</g>
<g
   id="g84">
</g>
</svg>